<?xml version="1.0" encoding="UTF-8"?>
<svg version="1.1" xmlns="http://www.w3.org/2000/svg" width="312" height="314">
<path d="M0 0 C29.23231193 25.25797256 48.31435332 63.64404251 52.18359375 101.88671875 C52.41980481 107.50925765 52.42926682 113.13473239 52.43359375 118.76171875 C52.43426849 119.54739227 52.43494324 120.3330658 52.43563843 121.14254761 C52.41990684 132.65880268 52.01159885 143.67126437 49.18359375 154.88671875 C49.0119873 155.6152002 48.84038086 156.34368164 48.66357422 157.09423828 C46.01121123 168.2417478 42.20493361 178.59661823 37.18359375 188.88671875 C36.87550781 189.52206543 36.56742187 190.15741211 36.25 190.81201172 C27.86081581 207.87321048 16.57744491 221.49286759 3.18359375 234.88671875 C2.67957031 235.43714844 2.17554688 235.98757813 1.65625 236.5546875 C-13.3268708 252.69993401 -35.38166602 263.07417312 -55.81640625 270.07421875 C-56.50323486 270.31229248 -57.19006348 270.55036621 -57.89770508 270.7956543 C-60.18978908 271.55366005 -62.49291864 272.23109341 -64.81640625 272.88671875 C-65.74573975 273.15887207 -66.67507324 273.43102539 -67.63256836 273.71142578 C-78.36219449 276.45073123 -89.06602717 276.41060799 -100.08129883 276.38769531 C-103.34872964 276.38672769 -106.61376842 276.42837006 -109.88085938 276.47265625 C-146.44804683 276.68082484 -179.1925086 262.41974912 -206.81640625 238.88671875 C-208.03650391 237.86964844 -208.03650391 237.86964844 -209.28125 236.83203125 C-213.4469301 233.30328291 -213.4469301 233.30328291 -214.81640625 231.88671875 C-214.81640625 231.22671875 -214.81640625 230.56671875 -214.81640625 229.88671875 C-215.47640625 229.88671875 -216.13640625 229.88671875 -216.81640625 229.88671875 C-219.59498494 226.90253699 -222.06877935 223.66857678 -224.58300781 220.45996094 C-225.73260758 218.99360683 -226.89511284 217.53739587 -228.05859375 216.08203125 C-254.81923869 181.70269736 -263.77369828 139.20605401 -259.35546875 96.32421875 C-258.77943734 92.1062413 -257.85555484 88.01147289 -256.81640625 83.88671875 C-256.63899902 83.10893066 -256.4615918 82.33114258 -256.27880859 81.52978516 C-250.14677744 54.91604181 -236.87871083 30.43468714 -217.81640625 10.88671875 C-216.76951102 9.77736284 -215.72263761 8.66798634 -214.67578125 7.55859375 C-194.53391072 -13.48575215 -168.28151315 -28.54441043 -139.81640625 -35.11328125 C-138.62917969 -35.41105469 -137.44195312 -35.70882812 -136.21875 -36.015625 C-87.10511991 -46.98638212 -38.27895794 -30.58336154 0 0 Z " fill="#FEFEFE" transform="translate(259.81640625,38.11328125)"/>
<path d="M0 0 C-0.48843066 6.28589025 -3.38419052 11.43883248 -6.125 17 C-6.86943359 18.53333984 -6.86943359 18.53333984 -7.62890625 20.09765625 C-10.88209172 26.78147368 -14.18419422 33.44102066 -17.5625 40.0625 C-18.56338934 42.10779561 -19.50387777 44.18329323 -20.39599609 46.27832031 C-21.8669087 49.73007697 -23.46149003 53.10915339 -25.1015625 56.484375 C-25.96007812 58.25748047 -25.96007812 58.25748047 -26.8359375 60.06640625 C-27.73518436 61.91869685 -28.63505336 63.77068383 -29.53515625 65.62255859 C-30.41295772 67.42993661 -31.28854223 69.23839083 -32.1640625 71.046875 C-32.94450928 72.65320801 -32.94450928 72.65320801 -33.74072266 74.29199219 C-35.06483221 77.00569705 -35.06483221 77.00569705 -36 80 C-23.13 80 -10.26 80 3 80 C1.91679073 84.33283708 1.05013966 85.30664044 -2.0625 88.3125 C-2.88492188 89.10914063 -3.70734375 89.90578125 -4.5546875 90.7265625 C-6.56533174 92.59588351 -8.59925123 94.40661252 -10.6875 96.1875 C-15.33012807 100.16024988 -19.55822334 104.53248317 -23.8527832 108.87231445 C-27.5137908 112.55700831 -31.24534959 116.07159391 -35.2109375 119.4296875 C-37.94364055 121.82826092 -40.45005228 124.44145935 -43 127.03125 C-45.55477763 129.54610923 -48.25389677 131.86153617 -50.9765625 134.19140625 C-53.91220468 136.81534897 -56.62122333 139.64618465 -59.3359375 142.49609375 C-61 144 -61 144 -63 144 C-63.23460937 144.57234375 -63.46921875 145.1446875 -63.7109375 145.734375 C-65.29890437 148.52534707 -67.19288222 150.15672216 -69.625 152.25 C-72.89977286 155.12013139 -76.07622147 158.01572983 -79.125 161.125 C-82.29797287 164.34904688 -85.61907414 167.32081279 -89.046875 170.26953125 C-92.72986485 173.53266026 -96.24465146 177.02239803 -99.51171875 180.703125 C-101 182 -101 182 -104 182 C-103.65539265 176.60115158 -102.19168039 173.09513977 -99.3515625 168.50390625 C-98.21549903 166.39923375 -97.39754082 164.46395733 -96.58984375 162.2265625 C-95.02302306 157.91126039 -93.03979346 153.88837508 -90.9375 149.8125 C-88.77632508 145.59721754 -86.66520749 141.44342931 -85 137 C-84.34 137 -83.68 137 -83 137 C-82.86658203 135.74896484 -82.86658203 135.74896484 -82.73046875 134.47265625 C-81.87680542 130.41433166 -80.234094 127.06956315 -78.3125 123.4375 C-74.6360369 116.38188147 -71.34388172 109.24507706 -68 102 C-80.87 102 -93.74 102 -107 102 C-105.87446053 97.49784212 -105.87446053 97.49784212 -103.33984375 95.01171875 C-102.7974707 94.47385742 -102.25509766 93.93599609 -101.69628906 93.38183594 C-101.11588867 92.82270508 -100.53548828 92.26357422 -99.9375 91.6875 C-99.34549805 91.10645508 -98.75349609 90.52541016 -98.14355469 89.92675781 C-94.50964486 86.38414228 -90.79167956 82.97456763 -86.9140625 79.69921875 C-83.73516861 76.87713948 -80.82259421 73.79047723 -77.8828125 70.72265625 C-76 69 -76 69 -74 69 C-73.74347656 68.40574219 -73.48695313 67.81148438 -73.22265625 67.19921875 C-71.88290435 64.78937747 -70.5626757 63.55128012 -68.4375 61.8125 C-65.3054041 59.16749316 -62.37403913 56.42384916 -59.5 53.5 C-56.16832381 50.12276243 -52.72809329 46.9834488 -49.12109375 43.90625 C-45.6133154 40.75377149 -42.37139404 37.33777926 -39.1015625 33.94140625 C-37 32 -37 32 -35 32 C-35 31.34 -35 30.68 -35 30 C-33.53125 28.51953125 -33.53125 28.51953125 -31.5 26.8125 C-30.77167969 26.19246094 -30.04335937 25.57242188 -29.29296875 24.93359375 C-28.53628906 24.29550781 -27.77960938 23.65742187 -27 23 C-25.60097915 21.79535864 -24.20501739 20.58715323 -22.8125 19.375 C-22.20019531 18.84648438 -21.58789062 18.31796875 -20.95703125 17.7734375 C-17.56189733 14.69680916 -14.3863475 11.40582555 -11.2109375 8.10546875 C-10.26566275 7.13277581 -9.32035005 6.16011976 -8.375 5.1875 C-7.89804688 4.68541016 -7.42109375 4.18332031 -6.9296875 3.66601562 C-3.33848852 0 -3.33848852 0 0 0 Z " fill="#09090B" transform="translate(210,67)"/>
<path d="M0 0 C0.99 0.99 1.98 1.98 3 3 C1.66666667 5.66666667 0.33333333 8.33333333 -1 11 C-0.34 11.33 0.32 11.66 1 12 C0.52949219 12.42410156 0.05898437 12.84820312 -0.42578125 13.28515625 C-4.65538321 17.2695639 -7.09363611 20.50518644 -9 26 C-9.66 26 -10.32 26 -11 26 C-10.34 27.32 -9.68 28.64 -9 30 C-8.01 29.67 -7.02 29.34 -6 29 C-6 29.66 -6 30.32 -6 31 C-7.98 31.99 -7.98 31.99 -10 33 C-8.68 33.66 -7.36 34.32 -6 35 C-8.33333333 37.33333333 -10.66666667 39.66666667 -13 42 C-13.50917969 42.57105469 -14.01835938 43.14210937 -14.54296875 43.73046875 C-16 45 -16 45 -19 45 C-18.65539265 39.60115158 -17.19168039 36.09513977 -14.3515625 31.50390625 C-13.21549903 29.39923375 -12.39754082 27.46395733 -11.58984375 25.2265625 C-10.02302306 20.91126039 -8.03979346 16.88837508 -5.9375 12.8125 C-3.77632508 8.59721754 -1.66520749 4.44342931 0 0 Z " fill="#19191A" transform="translate(125,204)"/>
<path d="M0 0 C0.66 0.33 1.32 0.66 2 1 C1.67 2.32 1.34 3.64 1 5 C1.9286084 5.01981934 2.8572168 5.03963867 3.81396484 5.06005859 C7.2545052 5.13808613 10.69459891 5.22477462 14.13476562 5.31738281 C15.62458889 5.35569998 17.11450554 5.39054808 18.60449219 5.421875 C20.74448048 5.46746729 22.88382436 5.52546874 25.0234375 5.5859375 C26.95582275 5.63306885 26.95582275 5.63306885 28.92724609 5.68115234 C32 6 32 6 34 8 C21.13 8 8.26 8 -5 8 C-4 3 -4 3 -2 1 C-1.34 0.67 -0.68 0.34 0 0 Z " fill="#C5C5C5" transform="translate(179,139)"/>
<path d="M0 0 C0 3.21534057 -0.26476072 4.35582586 -2 7 C-4.86064629 8.9572843 -7.87985844 10.49770962 -11 12 C-8.47295673 6.78797325 -4.38226641 3.6119868 0 0 Z M-13 12 C-12.34 12.33 -11.68 12.66 -11 13 C-12.2748209 15.84383123 -13.45137078 18.13754018 -16 20 C-17.32 19.67 -18.64 19.34 -20 19 C-17.69 16.69 -15.38 14.38 -13 12 Z " fill="#DCDCDC" transform="translate(209,153)"/>
<path d="M0 0 C-0.875 5.75 -0.875 5.75 -2 8 C-3.65438613 8.69658363 -5.32254318 9.36096883 -7 10 C-7.99 10.66 -8.98 11.32 -10 12 C-10.33 11.34 -10.66 10.68 -11 10 C-10.34 9.67 -9.68 9.34 -9 9 C-8.896875 8.4225 -8.79375 7.845 -8.6875 7.25 C-7.37306416 2.94820998 -4.51295403 0 0 0 Z " fill="#090909" transform="translate(210,67)"/>
<path d="M0 0 C0 4.61516791 -2.89387247 6.85930598 -6 10.0625 C-6.66 10.701875 -7.32 11.34125 -8 12 C-8.7425 12.7425 -9.485 13.485 -10.25 14.25 C-10.8275 14.8275 -11.405 15.405 -12 16 C-12.99 15.34 -13.98 14.68 -15 14 C-10.05 9.38 -5.1 4.76 0 0 Z " fill="#E4E4E5" transform="translate(135,223)"/>
<path d="M0 0 C0.99 0.33 1.98 0.66 3 1 C1.55218207 4.44428265 -0.27694609 6.36130962 -3.125 8.75 C-4.21167969 9.67039063 -4.21167969 9.67039063 -5.3203125 10.609375 C-5.87460938 11.06828125 -6.42890625 11.5271875 -7 12 C-7.33 11.01 -7.66 10.02 -8 9 C-5.77407001 5.61988409 -3.78717347 3.48781815 0 2 C0 1.34 0 0.68 0 0 Z " fill="#1C1C1D" transform="translate(132,221)"/>
<path d="M0 0 C0.99 0.66 1.98 1.32 3 2 C-0.32364676 7.34673609 -4.19945661 8.47549821 -10 10 C-6.66666667 6.66666667 -3.33333333 3.33333333 0 0 Z " fill="#E9E9EA" transform="translate(188,173)"/>
<path d="M0 0 C0 3 0 3 -1.20703125 4.4296875 C-2.00173828 5.14511719 -2.00173828 5.14511719 -2.8125 5.875 C-5.4401404 8.35976634 -7.29462659 10.77873912 -9 14 C-9.99 13.34 -10.98 12.68 -12 12 C-8.04 8.04 -4.08 4.08 0 0 Z " fill="#252525" transform="translate(154,117)"/>
<path d="M0 0 C0 4.43113094 -2.59379305 6.47660913 -5.5 9.625 C-7.24202435 11.22185566 -9.08696675 12.61470006 -11 14 C-11.33 13.01 -11.66 12.02 -12 11 C-11.46890625 10.54109375 -10.9378125 10.0821875 -10.390625 9.609375 C-6.81675301 6.50506283 -3.28145941 3.41818688 0 0 Z " fill="#DADADB" transform="translate(159,200)"/>
<path d="M0 0 C0.99 0.33 1.98 0.66 3 1 C2.01 1.495 2.01 1.495 1 2 C0.67 2.66 0.34 3.32 0 4 C-1.31866272 5.678298 -2.65080468 7.34614767 -4 9 C-5.32 8.34 -6.64 7.68 -8 7 C-6.68 6.34 -5.36 5.68 -4 5 C-4 4.34 -4 3.68 -4 3 C-2.1875 1.3125 -2.1875 1.3125 0 0 Z " fill="#1D1D1E" transform="translate(179,94)"/>
<path d="M0 0 C0.33 0.66 0.66 1.32 1 2 C-0.98 2.99 -0.98 2.99 -3 4 C-1.68 4.66 -0.36 5.32 1 6 C-0.32 6.99 -1.64 7.98 -3 9 C-4.5625 7.75 -4.5625 7.75 -6 6 C-6 3.9375 -6 3.9375 -5 2 C-2.4375 0.75 -2.4375 0.75 0 0 Z " fill="#141415" transform="translate(118,233)"/>
<path d="M0 0 C1.32 0.33 2.64 0.66 4 1 C3.01 1.33 2.02 1.66 1 2 C0.67 2.66 0.34 3.32 0 4 C-0.33 4.66 -0.66 5.32 -1 6 C-1.99 6.33 -2.98 6.66 -4 7 C-4.66 6.34 -5.32 5.68 -6 5 C-5.38125 4.731875 -4.7625 4.46375 -4.125 4.1875 C-1.7004767 3.04443152 -1.7004767 3.04443152 0 0 Z " fill="#1E1F1F" transform="translate(146,209)"/>
<path d="M0 0 C0 3.38023517 -0.87455622 5.83468937 -2 9 C-5 9 -5 9 -8 7 C-5.36 4.69 -2.72 2.38 0 0 Z " fill="#E4E4E4" transform="translate(170,190)"/>
<path d="M0 0 C0.66 0.66 1.32 1.32 2 2 C1.75 4.0625 1.75 4.0625 1 6 C0.01 6.495 0.01 6.495 -1 7 C-0.67 8.32 -0.34 9.64 0 11 C-0.99 11 -1.98 11 -3 11 C-2.53199289 6.94393835 -2.12046792 3.53411321 0 0 Z " fill="#2B2B2B" transform="translate(109,238)"/>
<path d="M0 0 C1.32 0.33 2.64 0.66 4 1 C3.01 3.97 2.02 6.94 1 10 C0.67 10 0.34 10 0 10 C0 6.7 0 3.4 0 0 Z " fill="#EDEDED" transform="translate(114,218)"/>
<path d="M0 0 C2.3125 0.1875 2.3125 0.1875 4 1 C1.75 3.5625 1.75 3.5625 -1 6 C-3.3125 5.8125 -3.3125 5.8125 -5 5 C-2.75 2.4375 -2.75 2.4375 0 0 Z " fill="#E5E5E5" transform="translate(194,167)"/>
<path d="M0 0 C0.99 0 1.98 0 3 0 C2.67 1.65 2.34 3.3 2 5 C0.02 5 -1.96 5 -4 5 C-2.1875 2.5 -2.1875 2.5 0 0 Z " fill="#2C2C2C" transform="translate(207,67)"/>
<path d="M0 0 C1.125 3.75 1.125 3.75 0 6 C-0.99 6 -1.98 6 -3 6 C-3.33 5.34 -3.66 4.68 -4 4 C-3.67 3.01 -3.34 2.02 -3 1 C-2.01 0.67 -1.02 0.34 0 0 Z " fill="#131416" transform="translate(134,191)"/>
<path d="M0 0 C0.66 0.99 1.32 1.98 2 3 C0.625 6.6875 0.625 6.6875 -1 10 C-1.99 10 -2.98 10 -4 10 C-2.66666667 6.66666667 -1.33333333 3.33333333 0 0 Z " fill="#202020" transform="translate(142,169)"/>
<path d="M0 0 C1.98 0.66 3.96 1.32 6 2 C4.6875 4 4.6875 4 3 6 C2.01 6 1.02 6 0 6 C0 4.02 0 2.04 0 0 Z " fill="#1B1B1B" transform="translate(200,154)"/>
<path d="M0 0 C2.475 0.495 2.475 0.495 5 1 C5 2.65 5 4.3 5 6 C3.68 6.33 2.36 6.66 1 7 C0.67 4.69 0.34 2.38 0 0 Z " fill="#121315" transform="translate(170,142)"/>
<path d="M0 0 C2.375 0.3125 2.375 0.3125 5 1 C5.66 1.99 6.32 2.98 7 4 C6.34 4 5.68 4 5 4 C4.67 4.66 4.34 5.32 4 6 C2.62437146 4.71034824 1.29233607 3.37310707 0 2 C0 1.34 0 0.68 0 0 Z " fill="#151515" transform="translate(192,81)"/>
<path d="M0 0 C1.04449911 3.13349732 0.93423645 3.98968256 0 7 C-1.32 6.01 -2.64 5.02 -4 4 C-2.68 2.68 -1.36 1.36 0 0 Z " fill="#DBDCDE" transform="translate(142,216)"/>
<path d="M0 0 C0 1.98 0 3.96 0 6 C-0.66 6 -1.32 6 -2 6 C-2 5.34 -2 4.68 -2 4 C-3.32 4.33 -4.64 4.66 -6 5 C-1.125 0 -1.125 0 0 0 Z " fill="#222222" transform="translate(142,130)"/>
<path d="M0 0 C0.99 0.33 1.98 0.66 3 1 C2.34 2.65 1.68 4.3 1 6 C-0.32 5.67 -1.64 5.34 -3 5 C-2.67 4.01 -2.34 3.02 -2 2 C-1.34 2 -0.68 2 0 2 C0 1.34 0 0.68 0 0 Z " fill="#212121" transform="translate(187,111)"/>
<path d="M0 0 C1.125 1.75 1.125 1.75 2 4 C1.125 6.25 1.125 6.25 0 8 C-0.33 7.34 -0.66 6.68 -1 6 C-1.66 5.67 -2.32 5.34 -3 5 C-2.01 3.35 -1.02 1.7 0 0 Z " fill="#D4D4D4" transform="translate(213,147)"/>
<path d="M0 0 C2.475 0.495 2.475 0.495 5 1 C3.35 2.65 1.7 4.3 0 6 C0 4.02 0 2.04 0 0 Z " fill="#DEDEDE" transform="translate(120,144)"/>
</svg>
